<svg xmlns="http://www.w3.org/2000/svg" width="15.271" height="8.916" viewBox="0 0 15.271 8.916"><defs><style>.a{fill:#9d9fa0;}</style></defs><path class="a" d="M4421.044,5819.365a3.188,3.188,0,0,1-3.172-3.2,3.147,3.147,0,0,1,.024-.367l-2.55-1.472c-.38.334-.749.682-1.113,1.036-.271.263-.543.524-.806.778.016.051.017.074.028.086a26.685,26.685,0,0,0,3.017,2.822,7.5,7.5,0,0,0,3.341,1.489c.228.037.457.067.686.1h1.075c.388-.072.782-.124,1.164-.221a7.888,7.888,0,0,0,1.865-.747l-1.636-.944A3.179,3.179,0,0,1,4421.044,5819.365Z" transform="translate(-4413.427 -5811.727)"/><path class="a" d="M4525.282,5751.406a9.057,9.057,0,0,0-3.507-1.842,6.8,6.8,0,0,0-5.177.771l1.608.929a3.182,3.182,0,0,1,5.089,2.546,3.218,3.218,0,0,1-.023.378l2.571,1.484c.534-.483,1.049-.988,1.579-1.478l.332-.306v-.04A20.771,20.771,0,0,0,4525.282,5751.406Z" transform="translate(-4512.481 -5749.35)"/><path class="a" d="M4589.6,5813.388a1.721,1.721,0,0,0-.594.093l.456.263A2.128,2.128,0,0,1,4589.6,5813.388Z" transform="translate(-4581.998 -5810.827)"/><path class="a" d="M4559.452,5871.276a1.731,1.731,0,0,0,.52-.107l-2.522-1.456A1.912,1.912,0,0,0,4559.452,5871.276Z" transform="translate(-4551.703 -5864.905)"/><path class="a" d="M4440.548,5754.544l-1.168-.674-.165-.1-1.952-1.126-.9-.52-1.16-.67-1.694-.978-2.2-1.271-.769,1.332,1.622.936,2.266,1.308,1.163.671,3.027,1.748,1.157.668,1.729,1,2.172,1.254.769-1.332-1.606-.927Z" transform="translate(-4429.858 -5749.211)"/></svg>