<svg width="25" height="16" viewBox="0 0 25 16" fill="none" xmlns="http://www.w3.org/2000/svg">
<path fill-rule="evenodd" clip-rule="evenodd" d="M11.5625 16H23.5625C24.1155 16 24.5625 15.553 24.5625 15V1C24.5625 0.447 24.1155 0 23.5625 0H11.5625C11.0095 0 10.5625 0.447 10.5625 1V3H12.5625V2H22.5625V14H12.5625V13H10.5625V15C10.5625 15.553 11.0095 16 11.5625 16ZM8.563 15.1349L0 7.9999L8.563 0.8659V4.9999H18.562V6.9999H6.563V5.1349L3.125 7.9999L6.563 10.8659V8.9999H18.562V10.9999H8.563V15.1349Z" fill="#FFFFFF"/>
</svg>
