<svg xmlns="http://www.w3.org/2000/svg" width="11.548" height="11.529" viewBox="0 0 11.548 11.529"><defs><style>.a{fill:#eaeaea;}</style></defs><path class="a" d="M4537.313,5158.97a4.4,4.4,0,0,1-.611,2.3.419.419,0,0,0,.076.592c.8.787,1.587,1.584,2.383,2.375a.887.887,0,1,1-1.238,1.267c-.772-.757-1.531-1.526-2.295-2.291-.353-.353-.345-.337-.8-.114a4.511,4.511,0,0,1-5.129-.491,4.685,4.685,0,0,1,2.163-8.279A4.662,4.662,0,0,1,4537.313,5158.97Zm-1.557.008a3.134,3.134,0,1,0-3.124,3.116A3.147,3.147,0,0,0,4535.756,5158.978Z" transform="translate(-4527.911 -5154.264)"/></svg>