<svg xmlns="http://www.w3.org/2000/svg" width="59.462" height="14.965" viewBox="0 0 59.462 14.965"><defs><style>.a{fill:#f6bc45;}.b{fill:#055df3;}.c{fill:#00bf91;}.d{fill:#eb3d66;}.e{fill:#fff;}</style></defs><path class="a" d="M6.967,139.423V135.94H0v3.483H0v3.483H3.483a3.483,3.483,0,0,0,3.484-3.483Z" transform="translate(0 -128.045)"/><path class="b" d="M139.423,0H135.94V3.483h0V6.967h6.967V3.484h0A3.483,3.483,0,0,0,139.423,0Z" transform="translate(-128.045)"/><rect class="c" width="6.967" height="6.967" transform="translate(0.001 0.001)"/><path class="d" d="M155.3,135.94a3.484,3.484,0,1,0,0,6.968h2.561V135.94Z" transform="translate(-143.003 -128.045)"/><g transform="translate(18.591)"><path class="e" d="M330.527,68.376a4.5,4.5,0,0,0-4.464-4.39,4.413,4.413,0,0,0-2.993,1.169v-.179a1,1,0,0,0-.991-1.006H320.12V75.119h2.949V68.051a2.479,2.479,0,0,1,2.016-1.042,2.516,2.516,0,0,1,2.5,2.535v5.574h2.949V68.375Z" transform="translate(-320.12 -60.255)"/><path class="e" d="M975.038,63.97H973.08V75.119h2.949V64.976A1,1,0,0,0,975.038,63.97Z" transform="translate(-935.158 -60.255)"/><path class="e" d="M536.4,64.25a5.617,5.617,0,1,0,5.531,5.617A5.574,5.574,0,0,0,536.4,64.25Zm0,8.21a2.593,2.593,0,1,1,2.554-2.593A2.574,2.574,0,0,1,536.4,72.46Z" transform="translate(-518.63 -60.519)"/><path class="e" d="M763.792,9.3a5.524,5.524,0,0,0-5.481-5.566,5.389,5.389,0,0,0-2.532.63V1.006A1,1,0,0,0,754.788,0H752.83V14.864h5.53A5.525,5.525,0,0,0,763.792,9.3Zm-5.481,2.57h-2.532V9.3h0a2.531,2.531,0,1,1,2.53,2.57Z" transform="translate(-727.7 0)"/><path class="e" d="M974.978,0H973.07V2.787h2.936V1.029A1.028,1.028,0,0,0,974.978,0Z" transform="translate(-935.149)"/></g></svg>